<?xml version="1.0" standalone="no"?>
<!DOCTYPE svg PUBLIC "-//W3C//DTD SVG 20010904//EN"
 "http://www.w3.org/TR/2001/REC-SVG-20010904/DTD/svg10.dtd">
<svg version="1.0" xmlns="http://www.w3.org/2000/svg"
 width="948.000000pt" height="948.000000pt" viewBox="0 0 948.000000 948.000000"
 preserveAspectRatio="xMidYMid meet">

<g transform="translate(0.000000,948.000000) scale(0.100000,-0.100000)"
fill="#000000" stroke="none">
<path d="M4490 9473 c-134 -6 -391 -35 -555 -63 -832 -140 -1627 -513 -2280
-1070 -139 -119 -394 -374 -511 -510 -878 -1029 -1274 -2357 -1104 -3697 228
-1791 1473 -3307 3190 -3883 496 -167 966 -242 1515 -242 732 1 1393 150 2042
462 499 240 898 524 1299 924 389 390 666 776 904 1261 297 605 452 1213 479
1888 65 1574 -634 3047 -1894 3992 -887 665 -1958 991 -3085 938z m652 -38
c1343 -118 2547 -786 3363 -1865 509 -673 823 -1473 922 -2351 26 -237 24
-753 -5 -994 -115 -953 -467 -1776 -1070 -2505 -123 -148 -444 -469 -592 -592
-729 -603 -1552 -955 -2505 -1070 -241 -29 -757 -31 -994 -5 -790 89 -1497
344 -2136 770 -1100 734 -1850 1910 -2045 3210 -62 416 -67 897 -14 1312 66
512 212 997 444 1470 237 482 514 870 900 1255 253 254 456 419 754 615 653
430 1413 690 2201 754 172 14 598 12 777 -4z"/>
<path d="M4937 9108 c-2 -13 -152 -358 -332 -768 -282 -642 -451 -1027 -690
-1575 -29 -66 -150 -343 -270 -615 -196 -448 -612 -1396 -705 -1610 -20 -47
-125 -285 -232 -530 -107 -245 -302 -690 -433 -990 -131 -300 -243 -551 -248
-558 -7 -8 -24 -10 -56 -6 l-46 6 3 -113 c3 -119 -7 -162 -38 -179 -10 -5 -18
-20 -18 -32 0 -13 -14 -54 -31 -92 -17 -38 -30 -71 -27 -73 2 -2 19 33 37 77
19 45 41 84 49 88 8 4 132 4 275 1 290 -6 1494 -2 1680 6 66 2 217 7 335 10
921 23 2170 98 3155 189 138 13 252 21 255 19 6 -6 -148 -151 -315 -297 -155
-135 -298 -247 -416 -327 l-87 -58 -2267 10 -2267 10 -21 24 c-12 13 -33 26
-47 29 -18 5 -15 2 10 -11 20 -10 39 -30 44 -46 9 -24 1 -259 -20 -602 -3 -44
-1 -85 3 -92 6 -9 55 -13 167 -14 140 -1 160 1 178 18 11 10 52 72 91 138 95
161 110 180 170 210 71 35 122 33 437 -16 329 -52 337 -54 376 -93 l31 -31 8
-308 7 -307 232 1 c127 0 348 4 491 7 l261 7 56 34 c32 20 135 112 235 210
278 275 354 319 716 412 580 149 937 285 1177 446 187 125 385 287 629 512 68
64 133 117 144 118 28 5 47 22 47 43 0 24 -23 31 -52 16 -14 -8 -40 -15 -58
-18 -30 -5 -33 -2 -51 39 -17 41 -18 45 -2 78 9 19 23 35 30 35 28 0 114 52
124 74 11 24 48 36 117 36 17 0 32 5 32 10 0 7 -40 8 -122 3 -68 -4 -154 -8
-193 -8 l-70 0 -312 845 c-172 465 -455 1230 -629 1700 -806 2179 -1337 3615
-1379 3725 -25 66 -52 139 -61 163 -15 40 -17 42 -59 42 -36 0 -43 -3 -48 -22z
m23 -79 c0 -48 -4 -64 -19 -77 -19 -16 -246 -570 -238 -578 2 -2 55 124 117
281 103 259 124 305 135 294 7 -8 15 -247 20 -644 3 -231 8 -519 11 -640 5
-226 45 -2482 65 -3690 6 -374 9 -725 7 -779 l-3 -99 -35 -14 c-25 -9 -27 -12
-8 -8 14 3 33 8 42 11 12 4 16 0 16 -16 0 -11 -4 -19 -9 -16 -5 3 -416 8 -912
12 -497 3 -910 7 -916 9 -7 3 -13 0 -13 -6 0 -6 -21 -9 -52 -8 l-53 3 -3 -36
-3 -37 68 -3 68 -3 2 -79 c3 -85 13 -119 13 -44 0 32 5 48 15 52 8 3 15 1 15
-4 0 -6 -3 -10 -8 -10 -4 0 -4 -44 0 -97 5 -54 6 -129 4 -168 -3 -50 -2 -58 3
-30 6 29 7 15 7 -55 0 -52 3 -121 7 -152 l8 -57 -38 -4 c-25 -3 -19 -4 16 -3
l55 1 -4 65 c-2 36 -3 84 -4 107 0 24 -2 43 -5 43 -3 0 -6 75 -5 167 1 168 1
168 -6 43 -3 -69 -7 -107 -8 -85 -1 22 -5 84 -9 138 -5 87 -4 97 11 97 13 0
16 5 11 23 -18 63 -48 57 294 57 289 0 311 -1 312 -17 1 -17 2 -17 6 0 4 16
39 17 553 17 302 0 555 3 564 6 14 6 16 -22 16 -265 l0 -271 -37 -2 c-57 -2
90 -16 167 -15 36 0 48 2 28 4 l-38 4 -2 217 c0 119 -2 228 -3 242 -1 14 -5
268 -9 565 -4 297 -9 551 -11 565 -2 14 -7 255 -10 535 -4 281 -8 512 -10 515
-1 3 -6 205 -9 450 -4 245 -9 468 -11 495 -2 28 -7 194 -10 370 -3 176 -7 372
-10 435 -3 63 -7 207 -10 320 -3 113 -12 421 -21 685 -9 264 -14 514 -11 555
3 41 2 69 -2 62 -4 -6 -12 128 -19 300 -7 171 -10 313 -9 315 8 8 97 -255 97
-287 0 -21 3 -30 8 -22 5 7 105 -250 257 -660 136 -370 328 -889 426 -1153 97
-264 314 -851 482 -1305 168 -454 353 -955 412 -1115 59 -159 174 -470 255
-690 82 -220 214 -577 294 -794 80 -217 146 -398 146 -403 0 -4 -28 -8 -62 -8
-123 0 -133 -5 -173 -75 l-35 -63 -96 -23 c-53 -13 -91 -25 -86 -27 6 -2 45 6
88 17 43 11 79 19 81 18 1 -2 -16 -35 -37 -74 l-39 -70 -68 -7 c-116 -11 -574
-45 -647 -48 -48 -2 -70 1 -73 10 -3 6 4 13 14 13 17 1 17 1 0 6 -11 3 -32 19
-48 36 -16 18 -27 24 -23 15 3 -9 11 -19 19 -21 7 -3 17 -19 23 -36 10 -29 9
-31 -13 -31 -13 0 -31 -3 -40 -6 -11 -5 -18 0 -22 15 -7 28 -40 41 -106 41
-58 0 -97 -20 -97 -50 0 -16 -11 -19 -87 -24 -49 -4 -107 -8 -131 -10 -38 -3
-42 -1 -37 15 3 10 1 27 -5 39 -9 17 -20 20 -89 20 -89 0 -107 -11 -98 -59 l6
-28 -142 -7 c-78 -3 -189 -9 -246 -13 l-105 -6 22 28 c27 34 27 45 1 79 -20
26 -21 26 -163 26 -163 0 -186 -8 -186 -65 0 -53 26 -65 150 -66 199 -3 -608
-34 -1150 -44 -685 -13 -905 -15 -1188 -8 l-302 6 0 44 0 43 48 2 47 2 -47 3
-46 4 1 95 2 94 -92 0 c-51 0 -93 2 -93 4 0 3 185 427 697 1596 310 707 317
722 791 1805 231 528 574 1311 762 1740 188 429 412 941 498 1138 86 196 160
357 164 357 4 0 8 -27 8 -61z m-1661 -6051 c-1 -16 -17 -56 -18 -45 -1 4 -1
10 0 13 0 4 -5 10 -11 14 -7 4 -9 13 -6 19 10 15 36 14 35 -1z m4130 -370 c5
-15 4 -26 -3 -30 -7 -5 -5 -8 7 -8 9 0 17 -3 17 -7 0 -5 3 -18 6 -29 5 -21 1
-22 -103 -28 -59 -4 -128 -9 -153 -12 -33 -4 -41 -3 -30 5 8 6 12 11 7 11 -4
0 4 22 18 50 28 55 35 58 135 63 36 2 71 4 78 5 7 1 16 -8 21 -20z m111 15
c-1 -5 -14 -33 -30 -63 l-28 -55 -16 36 c-8 19 -18 47 -21 62 -7 27 -7 27 44
27 28 0 51 -3 51 -7z m-70 -138 c0 -2 -12 -29 -27 -59 l-26 -54 -146 -11 c-80
-7 -156 -14 -168 -17 -30 -6 -29 -3 9 67 l32 58 70 5 c39 4 87 8 106 9 60 6
150 7 150 2z m39 -97 c1 -5 -12 -8 -29 -8 -35 0 -35 -1 -13 45 l17 36 12 -33
c7 -18 13 -36 13 -40z m-5539 -8 c0 -33 -4 -60 -10 -60 -6 0 -10 27 -10 60 0
33 4 60 10 60 6 0 10 -27 10 -60z m40 43 c0 -5 -5 -15 -10 -23 -8 -12 -10 -11
-10 8 0 12 5 22 10 22 6 0 10 -3 10 -7z m190 -48 l0 -55 -105 0 c-117 0 -116
-1 -85 68 l19 42 86 0 85 0 0 -55z m-230 -146 c0 -35 -4 -59 -11 -59 -6 0 -9
24 -7 64 3 80 18 76 18 -5z m230 52 c0 -15 -10 -20 -57 -26 -71 -8 -83 -18
-83 -61 0 -35 -6 -39 -47 -28 -21 6 -23 12 -23 70 l0 64 105 0 c96 0 105 -2
105 -19z m0 -77 l0 -44 -65 0 c-64 0 -65 0 -65 28 0 39 11 50 50 54 82 8 80
10 80 -38z m-273 -26 c-3 -8 -6 -5 -6 6 -1 11 2 17 5 13 3 -3 4 -12 1 -19z
m572 -696 c5 -9 15 -54 22 -99 13 -88 6 -113 -31 -113 -14 0 -19 16 -29 93 -7
50 -15 102 -18 115 -4 18 -1 22 21 22 14 0 29 -8 35 -18z"/>
<path d="M5116 8714 c-4 -20 -5 -38 -3 -40 3 -3 8 11 11 32 4 20 5 38 3 40 -3
3 -8 -11 -11 -32z"/>
<path d="M5102 8640 c0 -14 2 -19 5 -12 2 6 2 18 0 25 -3 6 -5 1 -5 -13z"/>
<path d="M5092 8590 c0 -14 2 -19 5 -12 2 6 2 18 0 25 -3 6 -5 1 -5 -13z"/>
<path d="M5076 8524 c-4 -20 -5 -38 -3 -40 3 -3 8 11 11 32 4 20 5 38 3 40 -3
3 -8 -11 -11 -32z"/>
<path d="M4677 8318 c-9 -23 -15 -43 -13 -45 2 -2 11 15 20 38 9 23 15 43 13
45 -2 2 -11 -15 -20 -38z"/>
<path d="M4542 7978 c-61 -155 -110 -284 -108 -286 2 -2 54 124 115 279 61
155 110 283 108 285 -2 2 -54 -123 -115 -278z"/>
<path d="M4381 7569 c-23 -61 -40 -113 -38 -115 2 -2 22 46 45 108 23 61 40
113 38 115 -2 2 -22 -47 -45 -108z"/>
<path d="M4296 7334 c-14 -43 -24 -79 -22 -81 2 -2 16 31 30 73 14 43 24 79
22 81 -2 2 -16 -31 -30 -73z"/>
<path d="M4206 7075 c-3 -9 -6 -22 -5 -28 0 -7 5 -1 10 12 5 13 8 26 5 28 -2
2 -6 -3 -10 -12z"/>
<path d="M4111 6779 c-34 -105 -61 -193 -58 -195 2 -2 31 82 65 188 34 105 60
193 58 195 -2 2 -31 -82 -65 -188z"/>
<path d="M4021 6499 c-7 -22 -11 -43 -8 -45 2 -2 9 14 16 37 7 22 11 43 8 45
-2 2 -9 -14 -16 -37z"/>
<path d="M3991 6399 c-7 -22 -11 -43 -8 -45 2 -2 9 14 16 37 7 22 11 43 8 45
-2 2 -9 -14 -16 -37z"/>
<path d="M3956 6284 c-4 -14 -5 -28 -3 -31 3 -2 8 8 11 23 4 14 5 28 3 31 -3
2 -8 -8 -11 -23z"/>
<path d="M3921 6164 c-12 -42 -20 -78 -18 -80 2 -2 14 30 26 72 12 42 20 78
18 80 -2 2 -14 -30 -26 -72z"/>
<path d="M3886 6044 c-4 -14 -5 -28 -3 -31 3 -2 8 8 11 23 4 14 5 28 3 31 -3
2 -8 -8 -11 -23z"/>
<path d="M3861 5959 c-7 -22 -11 -43 -8 -45 2 -2 9 14 16 37 7 22 11 43 8 45
-2 2 -9 -14 -16 -37z"/>
<path d="M3826 5839 c-9 -34 -15 -63 -13 -66 2 -2 12 24 21 58 10 33 16 63 13
65 -2 2 -11 -24 -21 -57z"/>
<path d="M3786 5699 c-10 -33 -16 -63 -13 -65 2 -2 11 24 21 57 9 34 15 63 13
66 -2 2 -12 -24 -21 -58z"/>
<path d="M3756 5594 c-4 -14 -5 -28 -3 -31 3 -2 8 8 11 23 4 14 5 28 3 31 -3
2 -8 -8 -11 -23z"/>
<path d="M3736 5524 c-4 -14 -5 -28 -3 -31 3 -2 8 8 11 23 4 14 5 28 3 31 -3
2 -8 -8 -11 -23z"/>
<path d="M3721 5464 c0 -11 3 -14 6 -6 3 7 2 16 -1 19 -3 4 -6 -2 -5 -13z"/>
<path d="M3711 5424 c0 -11 3 -14 6 -6 3 7 2 16 -1 19 -3 4 -6 -2 -5 -13z"/>
<path d="M3701 5384 c0 -11 3 -14 6 -6 3 7 2 16 -1 19 -3 4 -6 -2 -5 -13z"/>
<path d="M3691 5344 c0 -11 3 -14 6 -6 3 7 2 16 -1 19 -3 4 -6 -2 -5 -13z"/>
<path d="M3681 5304 c0 -11 3 -14 6 -6 3 7 2 16 -1 19 -3 4 -6 -2 -5 -13z"/>
<path d="M3671 5264 c0 -11 3 -14 6 -6 3 7 2 16 -1 19 -3 4 -6 -2 -5 -13z"/>
<path d="M3662 5220 c0 -14 2 -19 5 -12 2 6 2 18 0 25 -3 6 -5 1 -5 -13z"/>
<path d="M3651 5174 c0 -11 3 -14 6 -6 3 7 2 16 -1 19 -3 4 -6 -2 -5 -13z"/>
<path d="M3636 5114 c-4 -20 -5 -38 -3 -40 3 -3 8 11 11 32 4 20 5 38 3 40 -3
3 -8 -11 -11 -32z"/>
<path d="M3621 5044 c0 -11 3 -14 6 -6 3 7 2 16 -1 19 -3 4 -6 -2 -5 -13z"/>
<path d="M3612 5000 c0 -14 2 -19 5 -12 2 6 2 18 0 25 -3 6 -5 1 -5 -13z"/>
<path d="M3601 4954 c0 -11 3 -14 6 -6 3 7 2 16 -1 19 -3 4 -6 -2 -5 -13z"/>
<path d="M3592 4910 c0 -14 2 -19 5 -12 2 6 2 18 0 25 -3 6 -5 1 -5 -13z"/>
<path d="M3581 4864 c0 -11 3 -14 6 -6 3 7 2 16 -1 19 -3 4 -6 -2 -5 -13z"/>
<path d="M3572 4820 c0 -14 2 -19 5 -12 2 6 2 18 0 25 -3 6 -5 1 -5 -13z"/>
<path d="M3561 4774 c0 -11 3 -14 6 -6 3 7 2 16 -1 19 -3 4 -6 -2 -5 -13z"/>
<path d="M3552 4730 c0 -14 2 -19 5 -12 2 6 2 18 0 25 -3 6 -5 1 -5 -13z"/>
<path d="M3536 4664 c-4 -20 -5 -38 -3 -40 3 -3 8 11 11 32 4 20 5 38 3 40 -3
3 -8 -11 -11 -32z"/>
<path d="M3522 4590 c0 -14 2 -19 5 -12 2 6 2 18 0 25 -3 6 -5 1 -5 -13z"/>
<path d="M3511 4544 c0 -11 3 -14 6 -6 3 7 2 16 -1 19 -3 4 -6 -2 -5 -13z"/>
<path d="M3502 4500 c0 -14 2 -19 5 -12 2 6 2 18 0 25 -3 6 -5 1 -5 -13z"/>
<path d="M3492 4450 c0 -14 2 -19 5 -12 2 6 2 18 0 25 -3 6 -5 1 -5 -13z"/>
<path d="M3476 4384 c-4 -20 -5 -38 -3 -40 3 -3 8 11 11 32 4 20 5 38 3 40 -3
3 -8 -11 -11 -32z"/>
<path d="M3462 4310 c0 -14 2 -19 5 -12 2 6 2 18 0 25 -3 6 -5 1 -5 -13z"/>
<path d="M3452 4260 c0 -14 2 -19 5 -12 2 6 2 18 0 25 -3 6 -5 1 -5 -13z"/>
<path d="M3442 4210 c0 -14 2 -19 5 -12 2 6 2 18 0 25 -3 6 -5 1 -5 -13z"/>
<path d="M3432 4160 c0 -14 2 -19 5 -12 2 6 2 18 0 25 -3 6 -5 1 -5 -13z"/>
<path d="M3422 4110 c0 -14 2 -19 5 -12 2 6 2 18 0 25 -3 6 -5 1 -5 -13z"/>
<path d="M3412 4060 c0 -14 2 -19 5 -12 2 6 2 18 0 25 -3 6 -5 1 -5 -13z"/>
<path d="M3395 3985 c-3 -26 -4 -49 -2 -51 3 -3 8 16 12 41 3 26 4 49 2 51 -3
3 -8 -16 -12 -41z"/>
<path d="M3382 3900 c0 -14 2 -19 5 -12 2 6 2 18 0 25 -3 6 -5 1 -5 -13z"/>
<path d="M3372 3850 c0 -14 2 -19 5 -12 2 6 2 18 0 25 -3 6 -5 1 -5 -13z"/>
<path d="M3362 3800 c0 -14 2 -19 5 -12 2 6 2 18 0 25 -3 6 -5 1 -5 -13z"/>
<path d="M3345 3725 c-3 -26 -4 -49 -2 -51 3 -3 8 16 12 41 3 26 4 49 2 51 -3
3 -8 -16 -12 -41z"/>
<path d="M3332 3640 c0 -14 2 -19 5 -12 2 6 2 18 0 25 -3 6 -5 1 -5 -13z"/>
<path d="M3322 3590 c0 -14 2 -19 5 -12 2 6 2 18 0 25 -3 6 -5 1 -5 -13z"/>
<path d="M3305 3515 c-3 -26 -4 -49 -2 -51 3 -3 8 16 12 41 3 26 4 49 2 51 -3
3 -8 -16 -12 -41z"/>
<path d="M3292 3430 c0 -14 2 -19 5 -12 2 6 2 18 0 25 -3 6 -5 1 -5 -13z"/>
<path d="M3282 3380 c0 -14 2 -19 5 -12 2 6 2 18 0 25 -3 6 -5 1 -5 -13z"/>
<path d="M3272 3325 c0 -16 2 -22 5 -12 2 9 2 23 0 30 -3 6 -5 -1 -5 -18z"/>
<path d="M3262 3270 c0 -14 2 -19 5 -12 2 6 2 18 0 25 -3 6 -5 1 -5 -13z"/>
<path d="M3252 3220 c0 -14 2 -19 5 -12 2 6 2 18 0 25 -3 6 -5 1 -5 -13z"/>
<path d="M3242 3165 c0 -16 2 -22 5 -12 2 9 2 23 0 30 -3 6 -5 -1 -5 -18z"/>
<path d="M3232 3110 c0 -14 2 -19 5 -12 2 6 2 18 0 25 -3 6 -5 1 -5 -13z"/>
<path d="M3922 2930 c0 -14 2 -19 5 -12 2 6 2 18 0 25 -3 6 -5 1 -5 -13z"/>
<path d="M3912 2880 c0 -14 2 -19 5 -12 2 6 2 18 0 25 -3 6 -5 1 -5 -13z"/>
<path d="M3902 2830 c0 -14 2 -19 5 -12 2 6 2 18 0 25 -3 6 -5 1 -5 -13z"/>
<path d="M3262 2780 c0 -19 3 -55 7 -80 11 -61 12 -4 1 65 -6 41 -7 44 -8 15z"/>
<path d="M3892 2780 c0 -14 2 -19 5 -12 2 6 2 18 0 25 -3 6 -5 1 -5 -13z"/>
<path d="M3882 2730 c0 -14 2 -19 5 -12 2 6 2 18 0 25 -3 6 -5 1 -5 -13z"/>
<path d="M3868 2673 c-2 -22 -9 -29 -33 -33 -25 -4 -31 -11 -40 -50 l-11 -45
-132 -5 c-148 -6 -153 -8 -150 -75 l1 -40 4 42 c2 23 10 46 17 52 7 6 70 12
141 13 l129 3 8 40 c11 49 20 59 51 51 15 -3 30 -20 42 -45 l17 -40 102 -4
c55 -2 112 -7 126 -11 14 -4 10 0 -9 8 -22 11 -63 16 -122 16 l-89 0 -18 38
c-9 20 -20 38 -24 40 -4 2 -4 19 -1 38 3 19 3 34 0 34 -3 0 -7 -12 -9 -27z"/>
<path d="M4283 2513 c43 -2 110 -2 150 0 40 1 5 3 -78 3 -82 0 -115 -2 -72 -3z"/>
<path d="M4562 2496 c7 -8 15 -12 17 -11 5 6 -10 25 -20 25 -5 0 -4 -6 3 -14z"/>
<path d="M4668 2473 c23 -2 61 -2 85 0 23 2 4 4 -43 4 -47 0 -66 -2 -42 -4z"/>
<path d="M4857 2463 c18 -2 50 -2 70 0 21 2 7 4 -32 4 -38 0 -55 -2 -38 -4z"/>
<path d="M6918 2443 c7 -3 16 -2 19 1 4 3 -2 6 -13 5 -11 0 -14 -3 -6 -6z"/>
<path d="M3108 2433 c-20 -5 -23 -24 -8 -39 7 -7 5 -21 -6 -42 -14 -30 -19
-32 -66 -32 -28 0 -49 -3 -46 -6 3 -3 57 -2 119 2 63 4 108 9 102 11 -7 3 -13
10 -13 18 0 7 -7 18 -16 26 -9 8 -13 21 -10 35 4 14 1 24 -10 28 -17 6 -19 6
-46 -1z"/>
<path d="M5318 2433 c18 -2 45 -2 60 0 15 2 0 4 -33 4 -33 0 -45 -2 -27 -4z"/>
<path d="M6840 2430 c-20 -6 -21 -8 -5 -8 11 0 31 4 45 8 20 6 21 8 5 8 -11 0
-31 -4 -45 -8z"/>
<path d="M5458 2423 c18 -2 45 -2 60 0 15 2 0 4 -33 4 -33 0 -45 -2 -27 -4z"/>
<path d="M3491 2400 c0 -15 -4 -30 -8 -36 -5 -5 -2 -4 5 2 8 6 12 22 9 35 -4
24 -4 24 -6 -1z"/>
<path d="M5583 2413 c15 -2 39 -2 55 0 15 2 2 4 -28 4 -30 0 -43 -2 -27 -4z"/>
<path d="M6750 2410 c-20 -6 -21 -8 -5 -8 11 0 31 4 45 8 20 6 21 8 5 8 -11 0
-31 -4 -45 -8z"/>
<path d="M5713 2403 c15 -2 37 -2 50 0 12 2 0 4 -28 4 -27 0 -38 -2 -22 -4z"/>
<path d="M5850 2400 l-55 -7 45 -1 c25 0 63 3 85 7 33 7 34 9 10 8 -16 0 -55
-3 -85 -7z"/>
<path d="M6013 2393 c15 -2 37 -2 50 0 12 2 0 4 -28 4 -27 0 -38 -2 -22 -4z"/>
<path d="M6688 2393 c6 -2 18 -2 25 0 6 3 1 5 -13 5 -14 0 -19 -2 -12 -5z"/>
<path d="M6128 2383 c12 -2 32 -2 45 0 12 2 2 4 -23 4 -25 0 -35 -2 -22 -4z"/>
<path d="M6638 2383 c6 -2 18 -2 25 0 6 3 1 5 -13 5 -14 0 -19 -2 -12 -5z"/>
<path d="M6588 2373 c6 -2 18 -2 25 0 6 3 1 5 -13 5 -14 0 -19 -2 -12 -5z"/>
<path d="M6538 2363 c6 -2 18 -2 25 0 6 3 1 5 -13 5 -14 0 -19 -2 -12 -5z"/>
<path d="M2674 2344 c11 -28 -12 -53 -52 -57 -30 -3 -27 -4 13 -4 28 0 82 3
120 7 61 6 64 7 22 8 -44 2 -48 4 -53 32 -5 24 -12 30 -31 30 -19 0 -24 -4
-19 -16z"/>
<path d="M6488 2353 c6 -2 18 -2 25 0 6 3 1 5 -13 5 -14 0 -19 -2 -12 -5z"/>
<path d="M3393 2343 c15 -2 37 -2 50 0 12 2 0 4 -28 4 -27 0 -38 -2 -22 -4z"/>
<path d="M3895 2339 c-49 -28 -58 -70 -24 -113 l20 -26 168 0 c156 0 169 1
186 20 25 28 23 76 -4 103 -20 20 -32 22 -174 25 -99 1 -159 -2 -172 -9z"/>
<path d="M6433 2343 c9 -2 23 -2 30 0 6 3 -1 5 -18 5 -16 0 -22 -2 -12 -5z"/>
<path d="M6373 2333 c9 -2 23 -2 30 0 6 3 -1 5 -18 5 -16 0 -22 -2 -12 -5z"/>
<path d="M6313 2323 c9 -2 23 -2 30 0 6 3 -1 5 -18 5 -16 0 -22 -2 -12 -5z"/>
<path d="M2900 2310 l-55 -7 52 -1 c28 -1 55 3 58 8 3 6 5 9 3 8 -2 -1 -28 -4
-58 -8z"/>
<path d="M2488 2273 c18 -2 45 -2 60 0 15 2 0 4 -33 4 -33 0 -45 -2 -27 -4z"/>
<path d="M2363 2263 c15 -2 39 -2 55 0 15 2 2 4 -28 4 -30 0 -43 -2 -27 -4z"/>
<path d="M7388 2563 c7 -3 16 -2 19 1 4 3 -2 6 -13 5 -11 0 -14 -3 -6 -6z"/>
<path d="M7325 2550 c-13 -5 -14 -9 -5 -9 8 0 24 4 35 9 13 5 14 9 5 9 -8 0
-24 -4 -35 -9z"/>
<path d="M7278 2533 c7 -3 16 -2 19 1 4 3 -2 6 -13 5 -11 0 -14 -3 -6 -6z"/>
<path d="M7210 2520 c-20 -6 -21 -8 -5 -8 11 0 29 3 40 8 25 11 -1 11 -35 0z"/>
<path d="M1792 1935 c-7 -14 -12 -31 -12 -38 0 -12 328 -132 337 -124 2 3 -71
30 -162 62 -91 31 -165 62 -165 67 0 5 5 18 11 30 6 11 9 22 6 24 -2 2 -9 -7
-15 -21z"/>
</g>
</svg>
